# xmcd
#
# Track frame offsets:
#	150
#	19770
#	55075
#	85362
#	112432
#	136600
#	169537
#	189530
#	215130
#
# Disc length: 3277 seconds
#
# Revision: 0
# Processed by: cddbd v1.4PL0 Copyright (c) Steve Scherf et al.
# Submitted via: audiograbber 1.80.04
#
DISCID=7d0ccb09
DTITLE=Milt Jackson-Ray Brown-Cedar Walton-Mickey Roker - Fabulous Foursome
DYEAR=1900
DGENRE=
TTITLE0=In Walked Bud
TTITLE1=Come Sunday
TTITLE2=Ain't Misbehaving
TTITLE3=Captain Bill
TTITLE4=Nature Boy
TTITLE5=Manha De Carnival
TTITLE6=Someone I Love
TTITLE7=Used To Be Jackson
TTITLE8=Django
EXTD=
EXTT0=
EXTT1=
EXTT2=
EXTT3=
EXTT4=
EXTT5=
EXTT6=
EXTT7=
EXTT8=
PLAYORDER=
